<svg width="1440" height="128" viewBox="0 0 1440 128" fill="none" xmlns="http://www.w3.org/2000/svg">
<mask id="path-1-outside-1" maskUnits="userSpaceOnUse" x="-4" y="0" width="1448" height="132" fill="black">
<rect fill="white" x="-4" width="1448" height="132"/>
<path d="M29.5222 15.3626H99.0015V3.20963H-3V9.83852H6.23927C11.2285 9.83852 13.0763 11.6799 13.0763 16.6516V115.348C13.0763 120.32 11.2285 122.161 6.23927 122.161H-3V128.79H101.588V116.637H29.5222V72.0765H83.6643V59.9235H29.5222V15.3626Z"/>
<path d="M156.168 117.558C156.168 115.533 158.385 112.586 159.309 111.297L184.81 77.0482L209.756 111.297C210.68 112.586 212.897 115.533 212.897 117.558C212.897 120.136 211.049 122.161 206.984 122.161H196.266V128.79H247.267V122.161H243.017C239.321 122.161 235.811 120.32 231.93 114.98L194.603 63.9745L230.452 15.7309C233.593 11.4957 237.474 9.83852 241.169 9.83852H245.05V3.20963H197.375V9.83852H207.723C211.788 9.83852 213.636 11.864 213.636 14.4419C213.636 16.4674 211.419 19.4136 210.495 20.7025L186.473 52.9263L163.005 20.7025C162.081 19.4136 159.864 16.4674 159.864 14.4419C159.864 11.864 161.712 9.83852 165.777 9.83852H176.494V3.20963H125.494V9.83852H129.374C133.994 9.83852 137.505 12.2323 141.2 17.3881L176.679 66.1841L140.276 115.164C136.95 119.584 133.994 122.161 128.45 122.161H124.755V128.79H172.429V122.161H162.081C158.016 122.161 156.168 120.136 156.168 117.558Z"/>
<path d="M269.371 3.20963V9.83852H278.61C283.599 9.83852 285.447 11.6799 285.447 16.6516V115.348C285.447 120.32 283.599 122.161 278.61 122.161H269.371V128.79H321.48V122.161H308.73C303.741 122.161 301.893 120.32 301.893 115.348V77.9688H339.035C361.579 77.9688 377.84 62.1331 377.84 40.5892C377.84 19.0453 361.579 3.20963 339.035 3.20963H269.371ZM301.893 15.3626H335.339C351.046 15.3626 361.209 24.9377 361.209 40.5892C361.209 56.2408 351.046 65.8159 335.339 65.8159H301.893V15.3626Z"/>
<path d="M435.371 15.3626H504.851V3.20963H402.849V9.83852H412.088C417.078 9.83852 418.926 11.6799 418.926 16.6516V115.348C418.926 120.32 417.078 122.161 412.088 122.161H402.849V128.79H507.438V116.637H435.371V72.0765H489.514V59.9235H435.371V15.3626Z"/>
<path d="M618.007 112.955C619.67 115.164 620.594 116.637 620.594 118.11C620.594 120.688 618.746 122.161 614.866 122.161H605.257V128.79H655.519V122.161H652.377C647.758 122.161 643.692 121.425 637.964 113.875L609.137 76.1275C630.018 75.2068 644.616 59.9235 644.616 39.6686C644.616 18.677 629.094 3.20963 606.92 3.20963H536.147V9.83852H545.387C550.376 9.83852 552.224 11.6799 552.224 16.6516V115.348C552.224 120.32 550.376 122.161 545.387 122.161H536.147V128.79H588.257V122.161H575.507C570.517 122.161 568.67 120.32 568.67 115.348V76.1275H590.105L618.007 112.955ZM603.409 63.9745H568.67V15.3626H603.409C618.562 15.3626 627.986 24.5694 627.986 39.6686C627.986 54.7677 618.562 63.9745 603.409 63.9745Z"/>
<path d="M710.268 16.6516C710.268 11.6799 712.116 9.83852 717.106 9.83852H726.345V3.20963H677.746V9.83852H686.985C691.975 9.83852 693.823 11.6799 693.823 16.6516V115.348C693.823 120.32 691.975 122.161 686.985 122.161H677.746V128.79H726.345V122.161H717.106C712.116 122.161 710.268 120.32 710.268 115.348V16.6516Z"/>
<path d="M857.501 115.348C857.501 120.32 855.653 122.161 850.664 122.161H837.913V128.79H890.023V122.161H880.783C875.794 122.161 873.946 120.32 873.946 115.348V16.6516C873.946 11.6799 875.794 9.83852 880.783 9.83852H890.023V3.20963H849.74L821.837 82.3881L793.38 3.20963H754.021V9.83852H763.26C768.249 9.83852 770.097 11.6799 770.097 16.6516V115.348C770.097 120.32 768.249 122.161 763.26 122.161H754.021V128.79H802.989V122.161H790.239C785.249 122.161 783.402 120.32 783.402 115.348V18.1246L814.261 103.195H827.196L857.501 17.7564V115.348Z"/>
<path d="M950.338 15.3626H1019.82V3.20963H917.816V9.83852H927.055C932.044 9.83852 933.892 11.6799 933.892 16.6516V115.348C933.892 120.32 932.044 122.161 927.055 122.161H917.816V128.79H1022.4V116.637H950.338V72.0765H1004.48V59.9235H950.338V15.3626Z"/>
<path d="M1067.19 16.6516V115.348C1067.19 120.32 1065.34 122.161 1060.35 122.161H1051.11V128.79H1100.08V122.161H1087.33C1082.34 122.161 1080.49 120.32 1080.49 115.348V30.4618L1155.15 128.79H1165.31V16.6516C1165.31 11.6799 1167.16 9.83852 1172.15 9.83852H1181.39V3.20963H1132.42V9.83852H1145.17C1150.16 9.83852 1152.01 11.6799 1152.01 16.6516V97.8555L1080.49 3.20963H1051.11V9.83852H1060.35C1065.34 9.83852 1067.19 11.6799 1067.19 16.6516Z"/>
<path d="M1209.13 15.3626H1253.48V115.348C1253.48 120.32 1251.63 122.161 1246.65 122.161H1237.41V128.79H1286V122.161H1276.77C1271.78 122.161 1269.93 120.32 1269.93 115.348V15.3626H1314.28V3.20963H1209.13V15.3626Z"/>
<path d="M1442.82 46.8499C1439.12 18.1246 1419.53 1 1390.89 1C1363.91 1 1341 16.4674 1341 41.5099C1341 60.6601 1353.56 72.6289 1373.89 73.7337L1402.16 75.2068C1417.5 75.9433 1426 80.1785 1426 93.8045C1426 111.482 1410.66 118.847 1391.63 118.847C1369.46 118.847 1354.67 108.72 1351.16 84.966H1337.49C1342.48 121.057 1370.01 131 1391.81 131C1414.54 131 1443 120.873 1443 91.2266C1443 68.9462 1428.4 60.2918 1408.26 59.187L1380.91 57.7139C1366.5 56.9773 1358 52.0057 1358 40.221C1358 21.0708 1374.63 13.153 1392.55 13.153C1409 13.153 1425.81 21.8074 1429.14 46.8499H1442.82Z"/>
</mask>
<path d="M29.5222 15.3626H99.0015V3.20963H-3V9.83852H6.23927C11.2285 9.83852 13.0763 11.6799 13.0763 16.6516V115.348C13.0763 120.32 11.2285 122.161 6.23927 122.161H-3V128.79H101.588V116.637H29.5222V72.0765H83.6643V59.9235H29.5222V15.3626Z" stroke="white" stroke-width="2" mask="url(#path-1-outside-1)"/>
<path d="M156.168 117.558C156.168 115.533 158.385 112.586 159.309 111.297L184.81 77.0482L209.756 111.297C210.68 112.586 212.897 115.533 212.897 117.558C212.897 120.136 211.049 122.161 206.984 122.161H196.266V128.79H247.267V122.161H243.017C239.321 122.161 235.811 120.32 231.93 114.98L194.603 63.9745L230.452 15.7309C233.593 11.4957 237.474 9.83852 241.169 9.83852H245.05V3.20963H197.375V9.83852H207.723C211.788 9.83852 213.636 11.864 213.636 14.4419C213.636 16.4674 211.419 19.4136 210.495 20.7025L186.473 52.9263L163.005 20.7025C162.081 19.4136 159.864 16.4674 159.864 14.4419C159.864 11.864 161.712 9.83852 165.777 9.83852H176.494V3.20963H125.494V9.83852H129.374C133.994 9.83852 137.505 12.2323 141.2 17.3881L176.679 66.1841L140.276 115.164C136.95 119.584 133.994 122.161 128.45 122.161H124.755V128.79H172.429V122.161H162.081C158.016 122.161 156.168 120.136 156.168 117.558Z" stroke="white" stroke-width="2" mask="url(#path-1-outside-1)"/>
<path d="M269.371 3.20963V9.83852H278.61C283.599 9.83852 285.447 11.6799 285.447 16.6516V115.348C285.447 120.32 283.599 122.161 278.61 122.161H269.371V128.79H321.48V122.161H308.73C303.741 122.161 301.893 120.32 301.893 115.348V77.9688H339.035C361.579 77.9688 377.84 62.1331 377.84 40.5892C377.84 19.0453 361.579 3.20963 339.035 3.20963H269.371ZM301.893 15.3626H335.339C351.046 15.3626 361.209 24.9377 361.209 40.5892C361.209 56.2408 351.046 65.8159 335.339 65.8159H301.893V15.3626Z" stroke="white" stroke-width="2" mask="url(#path-1-outside-1)"/>
<path d="M435.371 15.3626H504.851V3.20963H402.849V9.83852H412.088C417.078 9.83852 418.926 11.6799 418.926 16.6516V115.348C418.926 120.32 417.078 122.161 412.088 122.161H402.849V128.79H507.438V116.637H435.371V72.0765H489.514V59.9235H435.371V15.3626Z" stroke="white" stroke-width="2" mask="url(#path-1-outside-1)"/>
<path d="M618.007 112.955C619.67 115.164 620.594 116.637 620.594 118.11C620.594 120.688 618.746 122.161 614.866 122.161H605.257V128.79H655.519V122.161H652.377C647.758 122.161 643.692 121.425 637.964 113.875L609.137 76.1275C630.018 75.2068 644.616 59.9235 644.616 39.6686C644.616 18.677 629.094 3.20963 606.92 3.20963H536.147V9.83852H545.387C550.376 9.83852 552.224 11.6799 552.224 16.6516V115.348C552.224 120.32 550.376 122.161 545.387 122.161H536.147V128.79H588.257V122.161H575.507C570.517 122.161 568.67 120.32 568.67 115.348V76.1275H590.105L618.007 112.955ZM603.409 63.9745H568.67V15.3626H603.409C618.562 15.3626 627.986 24.5694 627.986 39.6686C627.986 54.7677 618.562 63.9745 603.409 63.9745Z" stroke="white" stroke-width="2" mask="url(#path-1-outside-1)"/>
<path d="M710.268 16.6516C710.268 11.6799 712.116 9.83852 717.106 9.83852H726.345V3.20963H677.746V9.83852H686.985C691.975 9.83852 693.823 11.6799 693.823 16.6516V115.348C693.823 120.32 691.975 122.161 686.985 122.161H677.746V128.79H726.345V122.161H717.106C712.116 122.161 710.268 120.32 710.268 115.348V16.6516Z" stroke="white" stroke-width="2" mask="url(#path-1-outside-1)"/>
<path d="M857.501 115.348C857.501 120.32 855.653 122.161 850.664 122.161H837.913V128.79H890.023V122.161H880.783C875.794 122.161 873.946 120.32 873.946 115.348V16.6516C873.946 11.6799 875.794 9.83852 880.783 9.83852H890.023V3.20963H849.74L821.837 82.3881L793.38 3.20963H754.021V9.83852H763.26C768.249 9.83852 770.097 11.6799 770.097 16.6516V115.348C770.097 120.32 768.249 122.161 763.26 122.161H754.021V128.79H802.989V122.161H790.239C785.249 122.161 783.402 120.32 783.402 115.348V18.1246L814.261 103.195H827.196L857.501 17.7564V115.348Z" stroke="white" stroke-width="2" mask="url(#path-1-outside-1)"/>
<path d="M950.338 15.3626H1019.82V3.20963H917.816V9.83852H927.055C932.044 9.83852 933.892 11.6799 933.892 16.6516V115.348C933.892 120.32 932.044 122.161 927.055 122.161H917.816V128.79H1022.4V116.637H950.338V72.0765H1004.48V59.9235H950.338V15.3626Z" stroke="white" stroke-width="2" mask="url(#path-1-outside-1)"/>
<path d="M1067.19 16.6516V115.348C1067.19 120.32 1065.34 122.161 1060.35 122.161H1051.11V128.79H1100.08V122.161H1087.33C1082.34 122.161 1080.49 120.32 1080.49 115.348V30.4618L1155.15 128.79H1165.31V16.6516C1165.31 11.6799 1167.16 9.83852 1172.15 9.83852H1181.39V3.20963H1132.42V9.83852H1145.17C1150.16 9.83852 1152.01 11.6799 1152.01 16.6516V97.8555L1080.49 3.20963H1051.11V9.83852H1060.35C1065.34 9.83852 1067.19 11.6799 1067.19 16.6516Z" stroke="white" stroke-width="2" mask="url(#path-1-outside-1)"/>
<path d="M1209.13 15.3626H1253.48V115.348C1253.48 120.32 1251.63 122.161 1246.65 122.161H1237.41V128.79H1286V122.161H1276.77C1271.78 122.161 1269.93 120.32 1269.93 115.348V15.3626H1314.28V3.20963H1209.13V15.3626Z" stroke="white" stroke-width="2" mask="url(#path-1-outside-1)"/>
<path d="M1442.82 46.8499C1439.12 18.1246 1419.53 1 1390.89 1C1363.91 1 1341 16.4674 1341 41.5099C1341 60.6601 1353.56 72.6289 1373.89 73.7337L1402.16 75.2068C1417.5 75.9433 1426 80.1785 1426 93.8045C1426 111.482 1410.66 118.847 1391.63 118.847C1369.46 118.847 1354.67 108.72 1351.16 84.966H1337.49C1342.48 121.057 1370.01 131 1391.81 131C1414.54 131 1443 120.873 1443 91.2266C1443 68.9462 1428.4 60.2918 1408.26 59.187L1380.91 57.7139C1366.5 56.9773 1358 52.0057 1358 40.221C1358 21.0708 1374.63 13.153 1392.55 13.153C1409 13.153 1425.81 21.8074 1429.14 46.8499H1442.82Z" stroke="white" stroke-width="2" mask="url(#path-1-outside-1)"/>
</svg>
